# xmcd CD database file
#
# Track frame offsets:
#	150
#	9885
#	21870
#	32458
#	43480
#	53903
#	67170
#	80090
#	91093
#	101080
#	111653
#	129605
#	144528
#	158780
#	168280
#	180880
#
# Disc length: 2602 seconds
#
# Revision: 0
# Processed by: cddbd v1.5.2PL0 Copyright (c) Steve Scherf et al.
# Submitted via: CDex 1.70beta2
#
DISCID=d40a2810
DTITLE=Sarah Vaughan - Selection originally issued on Roulette Jazz
DYEAR=1995
DGENRE=Jazz
TTITLE0=Perdido
TTITLE1=After you've gone
TTITLE2=Have you met Miss Jones
TTITLE3=Jump for joy
TTITLE4=You stepped out of a dream
TTITLE5=I cried for you
TTITLE6=Mean to me
TTITLE7=Everytime we say goodbye
TTITLE8=Great day
TTITLE9=Just in time
TTITLE10=Loverman
TTITLE11=Honeysuckle Rose
TTITLE12=I can't give anything but love
TTITLE13=I'm gonna live until I die
TTITLE14=One mint Julep
TTITLE15=Moanin'
EXTD=YEAR: 1995
EXTT0=
EXTT1=
EXTT2=
EXTT3=
EXTT4=
EXTT5=
EXTT6=
EXTT7=
EXTT8=
EXTT9=
EXTT10=
EXTT11=
EXTT12=
EXTT13=
EXTT14=
EXTT15=
PLAYORDER=
